<svg width="300" height="389" viewBox="0 0 428 389" fill="none" xmlns="http://www.w3.org/2000/svg">
<g clip-path="url(#clip0_36_70)">
<path d="M398.83 281.137H269.106C268.138 281.137 267.353 280.351 267.353 279.399C267.353 278.432 268.138 277.646 269.106 277.646H398.83C399.797 277.646 400.583 278.433 400.583 279.399C400.583 280.351 399.796 281.137 398.83 281.137Z" fill="#D2C7BA"/>
<path d="M398.83 309.759H269.106C268.138 309.759 267.353 308.987 267.353 308.021C267.353 307.053 268.138 306.268 269.106 306.268H398.83C399.797 306.268 400.583 307.054 400.583 308.021C400.583 308.987 399.796 309.759 398.83 309.759Z" fill="#D2C7BA"/>
<path d="M398.83 338.38H269.106C268.138 338.38 267.353 337.609 267.353 336.642C267.353 335.675 268.138 334.889 269.106 334.889H398.83C399.797 334.889 400.583 335.675 400.583 336.642C400.583 337.609 399.796 338.38 398.83 338.38Z" fill="#D2C7BA"/>
<path d="M398.83 367.016H269.106C268.138 367.016 267.353 366.231 267.353 365.263C267.353 364.296 268.138 363.51 269.106 363.51H398.83C399.797 363.51 400.583 364.296 400.583 365.263C400.583 366.231 399.796 367.016 398.83 367.016Z" fill="#D2C7BA"/>
<path d="M376.914 388.928C375.947 388.928 375.161 388.142 375.161 387.19V257.472C375.161 256.504 375.947 255.719 376.914 255.719C377.866 255.719 378.652 256.505 378.652 257.472V387.19C378.652 388.142 377.866 388.928 376.914 388.928Z" fill="#D2C7BA"/>
<path d="M348.273 388.928C347.321 388.928 346.535 388.142 346.535 387.19V257.472C346.535 256.504 347.321 255.719 348.273 255.719C349.241 255.719 350.027 256.505 350.027 257.472V387.19C350.027 388.142 349.241 388.928 348.273 388.928Z" fill="#D2C7BA"/>
<path d="M319.647 388.928C318.679 388.928 317.909 388.142 317.909 387.19V257.472C317.909 256.504 318.679 255.719 319.647 255.719C320.615 255.719 321.4 256.505 321.4 257.472V387.19C321.4 388.142 320.615 388.928 319.647 388.928Z" fill="#D2C7BA"/>
<path d="M291.021 388.928C290.054 388.928 289.268 388.142 289.268 387.19V257.472C289.268 256.504 290.054 255.719 291.021 255.719C291.989 255.719 292.774 256.505 292.774 257.472V387.19C292.774 388.142 291.989 388.928 291.021 388.928Z" fill="#D2C7BA"/>
<path d="M103.397 74.1844C103.897 75.2319 103.455 76.4888 102.404 76.9849C101.359 77.4864 100.106 77.0396 99.6034 75.9934C99.1079 74.9445 99.5459 73.689 100.602 73.1902C100.642 73.169 100.69 73.1492 100.737 73.1293C101.756 72.7304 102.926 73.1827 103.397 74.1844ZM111.819 67.9738C112.579 68.8482 112.489 70.1769 111.623 70.9412C110.746 71.7014 109.419 71.6124 108.651 70.7387C107.885 69.865 107.976 68.5369 108.851 67.7767C109.042 67.6125 109.251 67.488 109.469 67.4018C110.268 67.087 111.214 67.2868 111.819 67.9731V67.9738ZM81.3252 76.5477C82.4769 76.6653 83.32 77.6958 83.2037 78.8541C83.0853 80.0036 82.0547 80.8472 80.8989 80.7323C79.7376 80.6098 78.9034 79.5821 79.0204 78.4244C79.1032 77.6143 79.6342 76.963 80.3446 76.6838C80.645 76.5661 80.9776 76.5114 81.3259 76.5477H81.3252ZM118.235 59.7167C119.205 60.3496 119.48 61.6524 118.847 62.6226C118.209 63.5969 116.906 63.8719 115.939 63.2315C114.962 62.6 114.693 61.2938 115.326 60.3236C115.573 59.9487 115.924 59.6722 116.316 59.5197C116.93 59.2761 117.644 59.3308 118.235 59.716L118.235 59.7167ZM71.7242 74.2179C72.8082 74.6401 73.3371 75.8634 72.9122 76.9397C72.4886 78.0228 71.2739 78.5551 70.1913 78.1337C70.1913 78.1337 70.1913 78.1337 70.1886 78.1275C69.1046 77.706 68.5791 76.4874 69.0006 75.4043C69.223 74.8378 69.6644 74.4218 70.1886 74.2165C70.6649 74.0291 71.2144 74.014 71.7242 74.2179ZM122.202 50.0379C123.305 50.3916 123.921 51.5657 123.57 52.6748C123.213 53.7825 122.037 54.3963 120.923 54.0425C119.82 53.6888 119.213 52.5113 119.562 51.4029C119.759 50.7748 120.228 50.3061 120.795 50.0837C121.229 49.9147 121.725 49.8873 122.202 50.0385V50.0379ZM63.1066 69.3976C64.0331 70.0955 64.2172 71.4133 63.5172 72.3397C62.8191 73.2682 61.5011 73.4502 60.5732 72.753C59.6453 72.0551 59.4626 70.7366 60.1606 69.8088C60.4042 69.4921 60.7217 69.256 61.0721 69.1185C61.7283 68.8612 62.5023 68.9406 63.1066 69.3983V69.3976ZM123.413 39.6412C124.576 39.6864 125.48 40.6587 125.443 41.8191C125.405 42.9795 124.427 43.8861 123.271 43.8471C122.11 43.8074 121.198 42.8331 121.237 41.6768C121.272 40.8092 121.816 40.0887 122.575 39.7911C122.834 39.6898 123.118 39.6324 123.413 39.6412ZM56.1135 62.4358C56.8149 63.356 56.6322 64.6786 55.7111 65.3813C54.7859 66.084 53.4638 65.9013 52.7686 64.9797C52.0582 64.058 52.2409 62.7355 53.16 62.0328C53.3222 61.9151 53.4939 61.8186 53.6684 61.7502C54.5238 61.4149 55.5284 61.6729 56.1142 62.4358H56.1135ZM121.762 29.3144C122.89 29.038 124.031 29.7298 124.305 30.8525C124.58 31.9801 123.889 33.1207 122.76 33.3958C121.638 33.6694 120.5 32.9852 120.224 31.8556C119.965 30.8252 120.526 29.7783 121.489 29.4C121.58 29.3637 121.667 29.3363 121.762 29.3138V29.3144ZM51.2131 53.7107C51.222 53.7333 51.2295 53.7511 51.2391 53.7771C51.2453 53.7955 51.2521 53.812 51.263 53.8373C51.6907 54.9122 51.1631 56.1328 50.0826 56.5652C49.0034 56.9888 47.7826 56.4592 47.3542 55.385C47.344 55.3603 47.3344 55.3364 47.3255 55.3124C47.3145 55.2885 47.3091 55.2707 47.2995 55.2461C46.8759 54.1698 47.4042 52.9478 48.4875 52.5229C49.5707 52.0966 50.7895 52.6338 51.2124 53.7107H51.2131ZM120.263 20.6133C120.825 21.6225 120.467 22.9027 119.454 23.474C118.439 24.0392 117.159 23.6806 116.593 22.6653C116.025 21.6602 116.389 20.3773 117.396 19.808C117.482 19.7615 117.569 19.7204 117.661 19.6841C118.623 19.3051 119.739 19.6869 120.263 20.614V20.6133ZM46.5761 42.2406C47.734 42.1256 48.7653 42.9645 48.8782 44.1222C48.9993 45.2764 48.1603 46.3075 47.0025 46.4225C45.848 46.5415 44.8161 45.7027 44.6963 44.5484C44.6026 43.5844 45.163 42.7127 46.0191 42.3767C46.1929 42.3069 46.3832 42.2604 46.5768 42.2406H46.5761ZM113.602 11.8287C114.426 12.6504 114.426 13.9771 113.602 14.8009C112.786 15.6227 111.452 15.624 110.631 14.8085C109.808 13.9853 109.808 12.658 110.631 11.8349C110.84 11.62 111.089 11.4599 111.348 11.3587C112.1 11.0624 112.995 11.2198 113.603 11.8287H113.602ZM47.5226 31.8214C48.6667 32.0273 49.4311 33.1091 49.2361 34.2558C49.0322 35.3998 47.9427 36.1661 46.7999 35.9636C45.6585 35.7638 44.8907 34.6759 45.0884 33.5353C45.2232 32.78 45.7365 32.1977 46.3927 31.9391C46.7431 31.8015 47.127 31.7564 47.5219 31.8214H47.5226ZM104.823 5.1809C105.831 5.75085 106.189 7.03375 105.619 8.04159C105.058 9.05423 103.774 9.41207 102.759 8.84554C101.75 8.27559 101.386 6.99612 101.956 5.98622C102.209 5.54696 102.582 5.22606 103.022 5.05432C103.587 4.83196 104.244 4.85932 104.823 5.1809H104.823ZM51.2432 22.0467C52.2936 22.5442 52.7378 23.7997 52.2375 24.8438C51.7407 25.8941 50.4829 26.3402 49.4339 25.84C48.3896 25.3398 47.9441 24.0843 48.4443 23.0395C48.6784 22.5394 49.0924 22.1754 49.5735 21.9865C50.0922 21.7826 50.6978 21.7888 51.2432 22.0467ZM94.5688 1.13995C95.698 1.41226 96.3891 2.54942 96.1168 3.67837C95.8355 4.80459 94.7036 5.49838 93.5731 5.2199C92.4454 4.94622 91.7549 3.80701 92.0273 2.67942C92.1997 1.98563 92.6876 1.46153 93.3028 1.21795C93.6929 1.06537 94.1384 1.0291 94.5695 1.13926L94.5688 1.13995ZM57.4507 13.6268C58.3252 14.3883 58.4162 15.7137 57.6546 16.5901C56.8929 17.4646 55.5674 17.5556 54.6908 16.794C53.8156 16.0339 53.7232 14.701 54.4869 13.8321C54.7168 13.568 54.9946 13.3743 55.3033 13.2553C56.0074 12.9789 56.8389 13.0966 57.4507 13.6268ZM83.6101 0.00210188C84.7694 -0.0368982 85.7425 0.866262 85.7829 2.03353C85.8212 3.19121 84.909 4.16143 83.7504 4.19906C82.5912 4.23874 81.6174 3.3349 81.577 2.16832C81.5455 1.25695 82.1087 0.460524 82.9149 0.14305C83.1325 0.0588915 83.3624 0.0103124 83.6101 0.00278609V0.00210188ZM65.7104 7.20138C66.3434 8.17775 66.0703 9.47844 65.0952 10.1113C64.1296 10.7477 62.8267 10.474 62.1889 9.50239C61.5559 8.52807 61.8296 7.22533 62.7966 6.59517C62.9232 6.51033 63.0518 6.4467 63.1832 6.39401C64.0927 6.03891 65.1554 6.35775 65.7104 7.20138ZM72.7493 1.87616C73.8558 1.52516 75.0404 2.13548 75.3908 3.24253C75.7418 4.3489 75.1314 5.53327 74.0242 5.88359C72.9176 6.23596 71.7331 5.62427 71.3827 4.51722C71.0474 3.45327 71.5976 2.32158 72.6145 1.92132C72.6631 1.90284 72.7069 1.8919 72.7493 1.87616Z" fill="#CDA379"/>
<path d="M372.561 297.186C353.442 315.683 325.028 319.535 298.941 324.749C269.589 330.627 240.823 339.362 213.172 350.802C177.388 365.596 115.562 381.931 89.29 340.269C78.9547 323.873 77.7216 303.321 79.5898 284.039C81.458 264.742 86.1093 245.716 86.4001 226.342C86.8189 198.417 78.1883 171.231 74.315 143.574C66.9935 91.3006 98.6891 15.5597 162.454 20.2459C192.54 22.4587 216.365 45.1957 239.452 64.6123C265.418 86.453 293.576 103.966 322.715 121.141C342.499 132.802 365.11 146.536 375.75 167.905C393.177 202.873 402.759 267.96 372.561 297.187V297.186Z" fill="#0369A1"/>
<path d="M307.088 30.5844C322.776 39.9204 337.135 52.3348 345.704 68.4589C356.283 88.3715 357.085 111.795 359.049 134.257C363.417 183.941 374.542 233.962 366.576 283.193C358.611 332.427 324.62 382.341 275.106 388.355C220.863 394.959 176.329 349.351 127.647 324.538C110.171 315.638 91.0432 308.988 76.6513 295.66C13.0876 236.793 89.3995 161.367 114.241 105.173C149.533 25.3337 224.525 -18.5332 307.086 30.585L307.088 30.5844Z" fill="#0284C7"/>
<path d="M127.32 75.2668C128.183 75.2668 128.885 75.9709 128.885 76.8357C128.885 77.6985 128.183 78.4012 127.32 78.4012C126.455 78.4012 125.753 77.6985 125.753 76.8357C125.753 75.9715 126.455 75.2668 127.32 75.2668ZM127.32 88.6952C128.183 88.6952 128.885 89.3978 128.885 90.2606C128.885 91.131 128.183 91.8282 127.32 91.8282C126.455 91.8282 125.753 91.131 125.753 90.2606C125.753 89.3978 126.455 88.6952 127.32 88.6952ZM127.32 102.121C128.183 102.121 128.885 102.824 128.885 103.688C128.885 104.552 128.183 105.254 127.32 105.254C126.455 105.254 125.753 104.551 125.753 103.688C125.753 102.824 126.455 102.121 127.32 102.121Z" fill="#D4C0AE"/>
<path d="M114.168 75.3434C115.032 75.3434 115.735 76.0461 115.735 76.9089C115.735 77.7751 115.032 78.4764 114.168 78.4764C113.303 78.4764 112.602 77.7751 112.602 76.9089C112.602 76.0461 113.303 75.3434 114.168 75.3434ZM114.168 88.7697C115.032 88.7697 115.735 89.4724 115.735 90.3366C115.735 91.2001 115.032 91.9021 114.168 91.9021C113.303 91.9021 112.602 91.1994 112.602 90.3366C112.602 89.4724 113.303 88.7697 114.168 88.7697ZM114.168 102.198C115.032 102.198 115.735 102.901 115.735 103.764C115.735 104.626 115.032 105.33 114.168 105.33C113.303 105.33 112.602 104.626 112.602 103.764C112.602 102.9 113.303 102.198 114.168 102.198Z" fill="#D4C0AE"/>
<path d="M101.017 75.4194C101.88 75.4194 102.584 76.1235 102.584 76.9863C102.584 77.8497 101.88 78.5517 101.017 78.5517C100.148 78.5517 99.4501 77.849 99.4501 76.9863C99.4501 76.1235 100.148 75.4194 101.017 75.4194ZM101.017 88.8477C101.88 88.8477 102.584 89.5504 102.584 90.4132C102.584 91.2774 101.88 91.9801 101.017 91.9801C100.148 91.9801 99.4501 91.2774 99.4501 90.4132C99.4501 89.5498 100.148 88.8477 101.017 88.8477ZM101.017 102.274C101.88 102.274 102.584 102.975 102.584 103.841C102.584 104.704 101.88 105.406 101.017 105.406C100.148 105.406 99.4501 104.704 99.4501 103.841C99.4501 102.975 100.148 102.274 101.017 102.274Z" fill="#D4C0AE"/>
<path d="M346.656 38.0765C344.253 51.5226 354.727 65.1809 355.86 66.6177C358.566 70.0525 359.216 69.8588 361.12 72.8605C365.685 79.9913 365.927 87.1543 366.002 90.663C366.531 116.266 365.791 115.098 368.708 124.993C373.363 140.723 385.227 154.05 391.741 158.094C398.165 162.069 405.48 166.459 413.566 164.852C420.382 163.497 423.98 158.639 424.63 157.73C429.33 151.141 427.924 143.173 427.351 140.22C425.28 129.435 418.826 127.21 412.901 115.752C409.531 109.238 411.043 108.836 406.493 85.9371C400.885 57.6361 397.349 52.046 395.006 48.8802C388.825 40.4917 381.434 35.9732 376.673 33.0721C370.733 29.4527 364.4 25.6916 357.538 26.7945C356.268 26.9991 353.11 27.5492 350.465 30.0452C349.936 30.5392 347.578 32.8614 346.656 38.0751V38.0765Z" fill="#0EA5E9"/>
<path d="M56.3462 296.46C45.6954 281.817 40.3673 274.503 33.0116 270.317C23.9744 265.179 14.0997 264.605 7.65958 269.577C1.48223 274.337 -2.9022 285.262 2.31984 298.032C9.79945 316.332 31.0017 323.752 34.502 324.976C37.2995 325.959 48.9644 329.722 57.7326 324.04C60.3925 322.317 65.5058 319.023 64.6743 311.92C64.339 309.079 63.0511 305.679 56.3468 296.461L56.3462 296.46Z" fill="#0EA5E9"/>
<path d="M22.3923 224.179C17.2962 224.179 13.1519 228.326 13.1519 233.42C13.1519 238.514 17.2962 242.659 22.3923 242.659C27.4877 242.659 31.632 238.514 31.632 233.42C31.632 228.326 27.4877 224.179 22.3923 224.179ZM22.3923 244.158C16.4695 244.158 11.6526 239.341 11.6526 233.42C11.6526 227.498 16.4695 222.68 22.3923 222.68C28.3137 222.68 33.1327 227.497 33.1327 233.42C33.1327 239.34 28.3144 244.158 22.3923 244.158Z" fill="#CDA379"/>
<path d="M213.509 322.921C213.509 321.561 212.402 320.457 211.044 320.457C205.923 320.457 203.313 323.585 201.217 326.093C199.155 328.572 197.859 329.962 195.176 329.962C192.492 329.962 191.196 328.572 189.135 326.093C187.037 323.585 184.429 320.457 179.306 320.457C174.187 320.457 171.577 323.585 169.481 326.093C167.419 328.572 166.123 329.962 163.441 329.962C160.758 329.962 159.461 328.572 157.4 326.093C155.304 323.585 152.693 320.457 147.574 320.457C142.453 320.457 139.843 323.585 137.747 326.093C135.687 328.572 134.388 329.962 131.707 329.962C129.024 329.962 127.727 328.572 125.667 326.093C123.569 323.585 120.961 320.457 115.84 320.457C114.481 320.457 113.375 321.561 113.375 322.921C113.375 324.281 114.481 325.384 115.84 325.384C118.522 325.384 119.82 326.789 121.879 329.252C123.975 331.761 126.586 334.889 131.707 334.889C136.828 334.889 139.436 331.761 141.532 329.252C143.594 326.789 144.891 325.384 147.573 325.384C150.256 325.384 151.553 326.789 153.613 329.252C155.711 331.761 158.319 334.889 163.44 334.889C168.559 334.889 171.169 331.761 173.266 329.252C175.327 326.789 176.624 325.384 179.305 325.384C181.99 325.384 183.286 326.789 185.347 329.252C187.444 331.761 190.055 334.889 195.175 334.889C200.296 334.889 202.906 331.761 205.003 329.252C207.064 326.789 208.361 325.384 211.044 325.384C212.403 325.384 213.509 324.281 213.509 322.921ZM112.601 322.921C112.601 321.138 114.054 319.687 115.84 319.687C121.324 319.687 124.062 322.966 126.261 325.595C128.285 328.028 129.361 329.192 131.707 329.192C134.053 329.192 135.128 328.028 137.153 325.595C139.352 322.966 142.09 319.687 147.573 319.687C153.056 319.687 155.794 322.966 157.994 325.595C160.016 328.028 161.094 329.192 163.439 329.192C165.785 329.192 166.861 328.028 168.885 325.595C171.085 322.966 173.823 319.687 179.305 319.687C184.788 319.687 187.527 322.966 189.728 325.595C191.752 328.028 192.828 329.192 195.175 329.192C197.522 329.192 198.598 328.028 200.621 325.595C202.821 322.966 205.559 319.687 211.043 319.687C212.829 319.687 214.282 321.137 214.282 322.921C214.282 324.704 212.829 326.154 211.043 326.154C208.695 326.154 207.62 327.333 205.596 329.751C203.395 332.38 200.658 335.675 195.175 335.675C189.69 335.675 186.953 332.38 184.752 329.751C182.73 327.333 181.653 326.154 179.305 326.154C176.959 326.154 175.883 327.333 173.86 329.751C171.66 332.38 168.921 335.675 163.439 335.675C157.956 335.675 155.217 332.38 153.019 329.751C150.995 327.333 149.919 326.154 147.573 326.154C145.226 326.154 144.15 327.333 142.128 329.751C139.928 332.38 137.19 335.675 131.707 335.675C126.223 335.675 123.486 332.38 121.286 329.751C119.264 327.333 118.187 326.154 115.84 326.154C114.054 326.154 112.601 324.704 112.601 322.921Z" fill="#FEFEFE"/>
<path d="M340.081 141.001C340.081 141.33 339.945 141.66 339.704 141.913C339.19 142.417 338.373 142.417 337.875 141.913L327.884 131.933C327.385 131.428 327.385 130.611 327.884 130.107C328.398 129.602 329.214 129.602 329.713 130.107L339.703 140.086C339.945 140.339 340.081 140.67 340.081 141.001H340.081Z" fill="#CDA379"/>
<path d="M340.081 131.018C340.081 131.349 339.945 131.679 339.704 131.932L329.713 141.912C329.214 142.417 328.399 142.417 327.885 141.912C327.386 141.408 327.386 140.591 327.885 140.086L337.875 130.107C338.374 129.602 339.19 129.602 339.704 130.107C339.946 130.358 340.082 130.687 340.082 131.018L340.081 131.018Z" fill="#CDA379"/>
<path d="M322.232 163.866C322.232 164.326 322.065 164.784 321.718 165.134C321.007 165.834 319.873 165.834 319.179 165.134L305.319 151.273C304.609 150.574 304.609 149.439 305.319 148.741C306.015 148.04 307.148 148.04 307.843 148.741L321.718 162.598C322.065 162.949 322.232 163.408 322.232 163.866Z" fill="#CDA379"/>
<path d="M322.232 150.006C322.232 150.465 322.065 150.924 321.718 151.274L307.843 165.135C307.148 165.835 306.015 165.835 305.319 165.135C304.609 164.433 304.609 163.3 305.319 162.599L319.179 148.742C319.873 148.04 321.007 148.04 321.718 148.742C322.065 149.091 322.232 149.55 322.232 150.007V150.006Z" fill="#CDA379"/>
</g>
<defs>
<clipPath id="clip0_36_70">
<rect width="428" height="389" fill="white"/>
</clipPath>
</defs>
</svg>
